M48
;Layer_Color=9474304
;FILE_FORMAT=4:3
METRIC,LZ
;TYPE=PLATED
T1F00S00C0.300
T2F00S00C1.000
T4F00S00C2.000
%
T01
X00704Y00141
X00728Y00244
X0077
X0064Y00243
Y00272
Y00301
X00535Y00295
X00527Y00224
X00513Y00141
X00525Y00095
X0045Y00147
X00338Y00141
X00318Y00243
Y00272
Y00301
X003625Y00244
X004045
X00209Y00184
Y00148
X00226Y00385
X00212Y00416
X00318Y0033
X003625Y00333
X0037Y00315
X004045Y00333
X00527Y00313
X00569
X0064Y0033
X00728Y00333
X00736Y00315
X0077Y00333
T02
X00857Y00201
Y002264
X00144Y00201
Y001756
T04
X009078Y001502
Y002518
X000932
Y001502
M30
