G04*
G04 #@! TF.GenerationSoftware,Altium Limited,Altium Designer,21.8.1 (53)*
G04*
G04 Layer_Physical_Order=3*
G04 Layer_Color=16440176*
%FSLAX43Y43*%
%MOMM*%
G71*
G04*
G04 #@! TF.SameCoordinates,51B7895C-9868-47CD-9656-1B8D3B44F892*
G04*
G04*
G04 #@! TF.FilePolarity,Positive*
G04*
G01*
G75*
G04:AMPARAMS|DCode=39|XSize=4mm|YSize=2mm|CornerRadius=0.5mm|HoleSize=0mm|Usage=FLASHONLY|Rotation=90.000|XOffset=0mm|YOffset=0mm|HoleType=Round|Shape=RoundedRectangle|*
%AMROUNDEDRECTD39*
21,1,4.000,1.000,0,0,90.0*
21,1,3.000,2.000,0,0,90.0*
1,1,1.000,0.500,1.500*
1,1,1.000,0.500,-1.500*
1,1,1.000,-0.500,-1.500*
1,1,1.000,-0.500,1.500*
%
%ADD39ROUNDEDRECTD39*%
G04:AMPARAMS|DCode=40|XSize=4mm|YSize=2mm|CornerRadius=0.5mm|HoleSize=0mm|Usage=FLASHONLY|Rotation=0.000|XOffset=0mm|YOffset=0mm|HoleType=Round|Shape=RoundedRectangle|*
%AMROUNDEDRECTD40*
21,1,4.000,1.000,0,0,0.0*
21,1,3.000,2.000,0,0,0.0*
1,1,1.000,1.500,-0.500*
1,1,1.000,-1.500,-0.500*
1,1,1.000,-1.500,0.500*
1,1,1.000,1.500,0.500*
%
%ADD40ROUNDEDRECTD40*%
%ADD41C,3.000*%
%ADD42C,1.700*%
%ADD43C,0.600*%
G36*
X99600Y500D02*
X500D01*
Y45000D01*
X99600D01*
Y500D01*
D02*
G37*
%LPC*%
G36*
X21327Y42147D02*
Y41727D01*
X21747D01*
X21670Y41914D01*
X21514Y42070D01*
X21327Y42147D01*
D02*
G37*
G36*
X21073D02*
X20886Y42070D01*
X20730Y41914D01*
X20653Y41727D01*
X21073D01*
Y42147D01*
D02*
G37*
G36*
X21747Y41473D02*
X21327D01*
Y41053D01*
X21514Y41130D01*
X21670Y41286D01*
X21747Y41473D01*
D02*
G37*
G36*
X21073D02*
X20653D01*
X20730Y41286D01*
X20886Y41130D01*
X21073Y41053D01*
Y41473D01*
D02*
G37*
G36*
X8200Y41061D02*
X7827D01*
Y38927D01*
X8961D01*
Y40300D01*
X8935Y40497D01*
X8859Y40680D01*
X8738Y40838D01*
X8580Y40959D01*
X8397Y41035D01*
X8200Y41061D01*
D02*
G37*
G36*
X7573D02*
X7200D01*
X7003Y41035D01*
X6820Y40959D01*
X6662Y40838D01*
X6541Y40680D01*
X6465Y40497D01*
X6439Y40300D01*
Y38927D01*
X7573D01*
Y41061D01*
D02*
G37*
G36*
X22710Y39054D02*
X22490D01*
X22286Y38970D01*
X22130Y38814D01*
X22046Y38610D01*
Y38390D01*
X22130Y38186D01*
X22286Y38030D01*
X22490Y37946D01*
X22710D01*
X22914Y38030D01*
X23070Y38186D01*
X23154Y38390D01*
Y38610D01*
X23070Y38814D01*
X22914Y38970D01*
X22710Y39054D01*
D02*
G37*
G36*
X8961Y38673D02*
X7827D01*
Y36539D01*
X8200D01*
X8397Y36565D01*
X8580Y36641D01*
X8738Y36762D01*
X8859Y36920D01*
X8935Y37103D01*
X8961Y37300D01*
Y38673D01*
D02*
G37*
G36*
X7573D02*
X6439D01*
Y37300D01*
X6465Y37103D01*
X6541Y36920D01*
X6662Y36762D01*
X6820Y36641D01*
X7003Y36565D01*
X7200Y36539D01*
X7573D01*
Y38673D01*
D02*
G37*
G36*
X14200Y41311D02*
X13200D01*
X13003Y41285D01*
X12820Y41209D01*
X12662Y41088D01*
X12541Y40930D01*
X12465Y40747D01*
X12439Y40550D01*
Y37050D01*
X12465Y36853D01*
X12541Y36670D01*
X12662Y36512D01*
X12820Y36391D01*
X13003Y36315D01*
X13200Y36289D01*
X14200D01*
X14397Y36315D01*
X14580Y36391D01*
X14738Y36512D01*
X14859Y36670D01*
X14935Y36853D01*
X14961Y37050D01*
Y40550D01*
X14935Y40747D01*
X14859Y40930D01*
X14738Y41088D01*
X14580Y41209D01*
X14397Y41285D01*
X14200Y41311D01*
D02*
G37*
G36*
X12200Y35361D02*
X10827D01*
Y34227D01*
X12961D01*
Y34600D01*
X12935Y34797D01*
X12859Y34980D01*
X12738Y35138D01*
X12580Y35259D01*
X12397Y35335D01*
X12200Y35361D01*
D02*
G37*
G36*
X10573D02*
X9200D01*
X9003Y35335D01*
X8820Y35259D01*
X8662Y35138D01*
X8541Y34980D01*
X8465Y34797D01*
X8439Y34600D01*
Y34227D01*
X10573D01*
Y35361D01*
D02*
G37*
G36*
X72927Y33847D02*
Y33427D01*
X73347D01*
X73270Y33614D01*
X73114Y33770D01*
X72927Y33847D01*
D02*
G37*
G36*
X72673D02*
X72486Y33770D01*
X72330Y33614D01*
X72253Y33427D01*
X72673D01*
Y33847D01*
D02*
G37*
G36*
X36377Y33847D02*
Y33427D01*
X36797D01*
X36720Y33614D01*
X36564Y33770D01*
X36377Y33847D01*
D02*
G37*
G36*
X36123D02*
X35936Y33770D01*
X35780Y33614D01*
X35703Y33427D01*
X36123D01*
Y33847D01*
D02*
G37*
G36*
X31927Y33547D02*
Y33127D01*
X32347D01*
X32270Y33314D01*
X32114Y33470D01*
X31927Y33547D01*
D02*
G37*
G36*
X31673D02*
X31486Y33470D01*
X31330Y33314D01*
X31253Y33127D01*
X31673D01*
Y33547D01*
D02*
G37*
G36*
X64127Y33547D02*
Y33127D01*
X64547D01*
X64470Y33314D01*
X64314Y33470D01*
X64127Y33547D01*
D02*
G37*
G36*
X63873D02*
X63686Y33470D01*
X63530Y33314D01*
X63453Y33127D01*
X63873D01*
Y33547D01*
D02*
G37*
G36*
X12961Y33973D02*
X10827D01*
Y32839D01*
X12200D01*
X12397Y32865D01*
X12580Y32941D01*
X12738Y33062D01*
X12859Y33220D01*
X12935Y33403D01*
X12961Y33600D01*
Y33973D01*
D02*
G37*
G36*
X10573D02*
X8439D01*
Y33600D01*
X8465Y33403D01*
X8541Y33220D01*
X8662Y33062D01*
X8820Y32941D01*
X9003Y32865D01*
X9200Y32839D01*
X10573D01*
Y33973D01*
D02*
G37*
G36*
X73347Y33173D02*
X72927D01*
Y32753D01*
X73114Y32830D01*
X73270Y32986D01*
X73347Y33173D01*
D02*
G37*
G36*
X72673D02*
X72253D01*
X72330Y32986D01*
X72486Y32830D01*
X72673Y32753D01*
Y33173D01*
D02*
G37*
G36*
X36797Y33173D02*
X36377D01*
Y32753D01*
X36564Y32830D01*
X36720Y32986D01*
X36797Y33173D01*
D02*
G37*
G36*
X36123D02*
X35703D01*
X35780Y32986D01*
X35936Y32830D01*
X36123Y32753D01*
Y33173D01*
D02*
G37*
G36*
X77110Y33854D02*
X76890D01*
X76686Y33770D01*
X76530Y33614D01*
X76446Y33410D01*
Y33190D01*
X76530Y32986D01*
X76686Y32830D01*
X76890Y32746D01*
X77110D01*
X77314Y32830D01*
X77470Y32986D01*
X77554Y33190D01*
Y33410D01*
X77470Y33614D01*
X77314Y33770D01*
X77110Y33854D01*
D02*
G37*
G36*
X40560Y33854D02*
X40340D01*
X40136Y33770D01*
X39980Y33614D01*
X39896Y33410D01*
Y33190D01*
X39980Y32986D01*
X40136Y32830D01*
X40340Y32746D01*
X40560D01*
X40764Y32830D01*
X40920Y32986D01*
X41004Y33190D01*
Y33410D01*
X40920Y33614D01*
X40764Y33770D01*
X40560Y33854D01*
D02*
G37*
G36*
X32347Y32873D02*
X31927D01*
Y32453D01*
X32114Y32530D01*
X32270Y32686D01*
X32347Y32873D01*
D02*
G37*
G36*
X31673D02*
X31253D01*
X31330Y32686D01*
X31486Y32530D01*
X31673Y32453D01*
Y32873D01*
D02*
G37*
G36*
X64547Y32873D02*
X64127D01*
Y32453D01*
X64314Y32530D01*
X64470Y32686D01*
X64547Y32873D01*
D02*
G37*
G36*
X63873D02*
X63453D01*
X63530Y32686D01*
X63686Y32530D01*
X63873Y32453D01*
Y32873D01*
D02*
G37*
G36*
X52827Y31847D02*
Y31427D01*
X53247D01*
X53170Y31614D01*
X53014Y31770D01*
X52827Y31847D01*
D02*
G37*
G36*
X52573D02*
X52386Y31770D01*
X52230Y31614D01*
X52153Y31427D01*
X52573D01*
Y31847D01*
D02*
G37*
G36*
X73710Y32054D02*
X73490D01*
X73286Y31970D01*
X73130Y31814D01*
X73046Y31610D01*
Y31390D01*
X73130Y31186D01*
X73286Y31030D01*
X73490Y30946D01*
X73710D01*
X73914Y31030D01*
X74070Y31186D01*
X74154Y31390D01*
Y31610D01*
X74070Y31814D01*
X73914Y31970D01*
X73710Y32054D01*
D02*
G37*
G36*
X37110D02*
X36890D01*
X36686Y31970D01*
X36530Y31814D01*
X36446Y31610D01*
Y31390D01*
X36530Y31186D01*
X36686Y31030D01*
X36890Y30946D01*
X37110D01*
X37314Y31030D01*
X37470Y31186D01*
X37554Y31390D01*
Y31610D01*
X37470Y31814D01*
X37314Y31970D01*
X37110Y32054D01*
D02*
G37*
G36*
X53247Y31173D02*
X52827D01*
Y30753D01*
X53014Y30830D01*
X53170Y30986D01*
X53247Y31173D01*
D02*
G37*
G36*
X52573D02*
X52153D01*
X52230Y30986D01*
X52386Y30830D01*
X52573Y30753D01*
Y31173D01*
D02*
G37*
G36*
X57010Y31854D02*
X56790D01*
X56586Y31770D01*
X56430Y31614D01*
X56346Y31410D01*
Y31190D01*
X56430Y30986D01*
X56586Y30830D01*
X56790Y30746D01*
X57010D01*
X57214Y30830D01*
X57370Y30986D01*
X57454Y31190D01*
Y31410D01*
X57370Y31614D01*
X57214Y31770D01*
X57010Y31854D01*
D02*
G37*
G36*
X64127Y30647D02*
Y30227D01*
X64547D01*
X64470Y30414D01*
X64314Y30570D01*
X64127Y30647D01*
D02*
G37*
G36*
X63873D02*
X63686Y30570D01*
X63530Y30414D01*
X63453Y30227D01*
X63873D01*
Y30647D01*
D02*
G37*
G36*
X31927D02*
Y30227D01*
X32347D01*
X32270Y30414D01*
X32114Y30570D01*
X31927Y30647D01*
D02*
G37*
G36*
X31673D02*
X31486Y30570D01*
X31330Y30414D01*
X31253Y30227D01*
X31673D01*
Y30647D01*
D02*
G37*
G36*
X64547Y29973D02*
X64127D01*
Y29553D01*
X64314Y29630D01*
X64470Y29786D01*
X64547Y29973D01*
D02*
G37*
G36*
X63873D02*
X63453D01*
X63530Y29786D01*
X63686Y29630D01*
X63873Y29553D01*
Y29973D01*
D02*
G37*
G36*
X32347D02*
X31927D01*
Y29553D01*
X32114Y29630D01*
X32270Y29786D01*
X32347Y29973D01*
D02*
G37*
G36*
X31673D02*
X31253D01*
X31330Y29786D01*
X31486Y29630D01*
X31673Y29553D01*
Y29973D01*
D02*
G37*
G36*
X53610Y30054D02*
X53390D01*
X53186Y29970D01*
X53030Y29814D01*
X52946Y29610D01*
Y29390D01*
X53030Y29186D01*
X53186Y29030D01*
X53390Y28946D01*
X53610D01*
X53814Y29030D01*
X53970Y29186D01*
X54054Y29390D01*
Y29610D01*
X53970Y29814D01*
X53814Y29970D01*
X53610Y30054D01*
D02*
G37*
G36*
X64110Y27754D02*
X63890D01*
X63686Y27670D01*
X63530Y27514D01*
X63446Y27310D01*
Y27090D01*
X63530Y26886D01*
X63686Y26730D01*
X63890Y26646D01*
X64110D01*
X64314Y26730D01*
X64470Y26886D01*
X64554Y27090D01*
Y27310D01*
X64470Y27514D01*
X64314Y27670D01*
X64110Y27754D01*
D02*
G37*
G36*
X31910D02*
X31690D01*
X31486Y27670D01*
X31330Y27514D01*
X31246Y27310D01*
Y27090D01*
X31330Y26886D01*
X31486Y26730D01*
X31690Y26646D01*
X31910D01*
X32114Y26730D01*
X32270Y26886D01*
X32354Y27090D01*
Y27310D01*
X32270Y27514D01*
X32114Y27670D01*
X31910Y27754D01*
D02*
G37*
G36*
X90953Y26934D02*
X90907D01*
Y25307D01*
X92534D01*
Y25353D01*
X92467Y25692D01*
X92334Y26011D01*
X92142Y26298D01*
X91898Y26542D01*
X91611Y26734D01*
X91292Y26867D01*
X90953Y26934D01*
D02*
G37*
G36*
X9493D02*
X9447D01*
Y25307D01*
X11074D01*
Y25353D01*
X11007Y25692D01*
X10874Y26011D01*
X10682Y26298D01*
X10438Y26542D01*
X10151Y26734D01*
X9832Y26867D01*
X9493Y26934D01*
D02*
G37*
G36*
X9193D02*
X9147D01*
X8808Y26867D01*
X8489Y26734D01*
X8202Y26542D01*
X7958Y26298D01*
X7766Y26011D01*
X7633Y25692D01*
X7566Y25353D01*
Y25307D01*
X9193D01*
Y26934D01*
D02*
G37*
G36*
X90653D02*
X90607D01*
X90268Y26867D01*
X89949Y26734D01*
X89662Y26542D01*
X89418Y26298D01*
X89226Y26011D01*
X89093Y25692D01*
X89026Y25353D01*
Y25307D01*
X90653D01*
Y26934D01*
D02*
G37*
G36*
X72927Y24947D02*
Y24527D01*
X73347D01*
X73270Y24714D01*
X73114Y24870D01*
X72927Y24947D01*
D02*
G37*
G36*
X72673D02*
X72486Y24870D01*
X72330Y24714D01*
X72253Y24527D01*
X72673D01*
Y24947D01*
D02*
G37*
G36*
X36377Y24947D02*
Y24527D01*
X36797D01*
X36720Y24714D01*
X36564Y24870D01*
X36377Y24947D01*
D02*
G37*
G36*
X36123D02*
X35936Y24870D01*
X35780Y24714D01*
X35703Y24527D01*
X36123D01*
Y24947D01*
D02*
G37*
G36*
X31927Y24847D02*
Y24427D01*
X32347D01*
X32270Y24614D01*
X32114Y24770D01*
X31927Y24847D01*
D02*
G37*
G36*
X31673D02*
X31486Y24770D01*
X31330Y24614D01*
X31253Y24427D01*
X31673D01*
Y24847D01*
D02*
G37*
G36*
X64127Y24847D02*
Y24427D01*
X64547D01*
X64470Y24614D01*
X64314Y24770D01*
X64127Y24847D01*
D02*
G37*
G36*
X63873D02*
X63686Y24770D01*
X63530Y24614D01*
X63453Y24427D01*
X63873D01*
Y24847D01*
D02*
G37*
G36*
X73347Y24273D02*
X72927D01*
Y23853D01*
X73114Y23930D01*
X73270Y24086D01*
X73347Y24273D01*
D02*
G37*
G36*
X72673D02*
X72253D01*
X72330Y24086D01*
X72486Y23930D01*
X72673Y23853D01*
Y24273D01*
D02*
G37*
G36*
X36797Y24273D02*
X36377D01*
Y23853D01*
X36564Y23930D01*
X36720Y24086D01*
X36797Y24273D01*
D02*
G37*
G36*
X36123D02*
X35703D01*
X35780Y24086D01*
X35936Y23930D01*
X36123Y23853D01*
Y24273D01*
D02*
G37*
G36*
X77110Y24954D02*
X76890D01*
X76686Y24870D01*
X76530Y24714D01*
X76446Y24510D01*
Y24290D01*
X76530Y24086D01*
X76686Y23930D01*
X76890Y23846D01*
X77110D01*
X77314Y23930D01*
X77470Y24086D01*
X77554Y24290D01*
Y24510D01*
X77470Y24714D01*
X77314Y24870D01*
X77110Y24954D01*
D02*
G37*
G36*
X40560Y24954D02*
X40340D01*
X40136Y24870D01*
X39980Y24714D01*
X39896Y24510D01*
Y24290D01*
X39980Y24086D01*
X40136Y23930D01*
X40340Y23846D01*
X40560D01*
X40764Y23930D01*
X40920Y24086D01*
X41004Y24290D01*
Y24510D01*
X40920Y24714D01*
X40764Y24870D01*
X40560Y24954D01*
D02*
G37*
G36*
X32347Y24173D02*
X31927D01*
Y23753D01*
X32114Y23830D01*
X32270Y23986D01*
X32347Y24173D01*
D02*
G37*
G36*
X31673D02*
X31253D01*
X31330Y23986D01*
X31486Y23830D01*
X31673Y23753D01*
Y24173D01*
D02*
G37*
G36*
X64547Y24173D02*
X64127D01*
Y23753D01*
X64314Y23830D01*
X64470Y23986D01*
X64547Y24173D01*
D02*
G37*
G36*
X63873D02*
X63453D01*
X63530Y23986D01*
X63686Y23830D01*
X63873Y23753D01*
Y24173D01*
D02*
G37*
G36*
X92534Y25053D02*
X90907D01*
Y23426D01*
X90953D01*
X91292Y23493D01*
X91611Y23626D01*
X91898Y23818D01*
X92142Y24062D01*
X92334Y24349D01*
X92467Y24668D01*
X92534Y25007D01*
Y25053D01*
D02*
G37*
G36*
X90653D02*
X89026D01*
Y25007D01*
X89093Y24668D01*
X89226Y24349D01*
X89418Y24062D01*
X89662Y23818D01*
X89949Y23626D01*
X90268Y23493D01*
X90607Y23426D01*
X90653D01*
Y25053D01*
D02*
G37*
G36*
X11074D02*
X9447D01*
Y23426D01*
X9493D01*
X9832Y23493D01*
X10151Y23626D01*
X10438Y23818D01*
X10682Y24062D01*
X10874Y24349D01*
X11007Y24668D01*
X11074Y25007D01*
Y25053D01*
D02*
G37*
G36*
X9193D02*
X7566D01*
Y25007D01*
X7633Y24668D01*
X7766Y24349D01*
X7958Y24062D01*
X8202Y23818D01*
X8489Y23626D01*
X8808Y23493D01*
X9147Y23426D01*
X9193D01*
Y25053D01*
D02*
G37*
G36*
X85845Y23744D02*
X85827D01*
Y22767D01*
X86804D01*
Y22785D01*
X86729Y23066D01*
X86583Y23318D01*
X86378Y23523D01*
X86126Y23669D01*
X85845Y23744D01*
D02*
G37*
G36*
X85573D02*
X85555D01*
X85274Y23669D01*
X85022Y23523D01*
X84817Y23318D01*
X84671Y23066D01*
X84596Y22785D01*
Y22767D01*
X85573D01*
Y23744D01*
D02*
G37*
G36*
X52827Y22947D02*
Y22527D01*
X53247D01*
X53170Y22714D01*
X53014Y22870D01*
X52827Y22947D01*
D02*
G37*
G36*
X52573D02*
X52386Y22870D01*
X52230Y22714D01*
X52153Y22527D01*
X52573D01*
Y22947D01*
D02*
G37*
G36*
X53247Y22273D02*
X52827D01*
Y21853D01*
X53014Y21930D01*
X53170Y22086D01*
X53247Y22273D01*
D02*
G37*
G36*
X52573D02*
X52153D01*
X52230Y22086D01*
X52386Y21930D01*
X52573Y21853D01*
Y22273D01*
D02*
G37*
G36*
X86804Y22513D02*
X85827D01*
Y21536D01*
X85845D01*
X86126Y21611D01*
X86378Y21757D01*
X86583Y21962D01*
X86729Y22214D01*
X86804Y22495D01*
Y22513D01*
D02*
G37*
G36*
X85573D02*
X84596D01*
Y22495D01*
X84671Y22214D01*
X84817Y21962D01*
X85022Y21757D01*
X85274Y21611D01*
X85555Y21536D01*
X85573D01*
Y22513D01*
D02*
G37*
G36*
X85845Y21204D02*
X85555D01*
X85274Y21129D01*
X85022Y20983D01*
X84817Y20778D01*
X84671Y20526D01*
X84596Y20245D01*
Y19955D01*
X84671Y19674D01*
X84817Y19422D01*
X85022Y19217D01*
X85274Y19071D01*
X85555Y18996D01*
X85845D01*
X86126Y19071D01*
X86378Y19217D01*
X86583Y19422D01*
X86729Y19674D01*
X86804Y19955D01*
Y20245D01*
X86729Y20526D01*
X86583Y20778D01*
X86378Y20983D01*
X86126Y21129D01*
X85845Y21204D01*
D02*
G37*
G36*
X14545D02*
X14255D01*
X13974Y21129D01*
X13722Y20983D01*
X13517Y20778D01*
X13371Y20526D01*
X13296Y20245D01*
Y19955D01*
X13371Y19674D01*
X13517Y19422D01*
X13722Y19217D01*
X13974Y19071D01*
X14255Y18996D01*
X14545D01*
X14826Y19071D01*
X15078Y19217D01*
X15283Y19422D01*
X15429Y19674D01*
X15504Y19955D01*
Y20245D01*
X15429Y20526D01*
X15283Y20778D01*
X15078Y20983D01*
X14826Y21129D01*
X14545Y21204D01*
D02*
G37*
G36*
X21010Y18954D02*
X20790D01*
X20586Y18870D01*
X20430Y18714D01*
X20346Y18510D01*
Y18290D01*
X20430Y18086D01*
X20586Y17930D01*
X20790Y17846D01*
X21010D01*
X21214Y17930D01*
X21370Y18086D01*
X21454Y18290D01*
Y18510D01*
X21370Y18714D01*
X21214Y18870D01*
X21010Y18954D01*
D02*
G37*
G36*
X14545Y18664D02*
X14527D01*
Y17687D01*
X15504D01*
Y17705D01*
X15429Y17986D01*
X15283Y18238D01*
X15078Y18443D01*
X14826Y18589D01*
X14545Y18664D01*
D02*
G37*
G36*
X14273D02*
X14255D01*
X13974Y18589D01*
X13722Y18443D01*
X13517Y18238D01*
X13371Y17986D01*
X13296Y17705D01*
Y17687D01*
X14273D01*
Y18664D01*
D02*
G37*
G36*
X15504Y17433D02*
X14527D01*
Y16456D01*
X14545D01*
X14826Y16531D01*
X15078Y16677D01*
X15283Y16882D01*
X15429Y17134D01*
X15504Y17415D01*
Y17433D01*
D02*
G37*
G36*
X14273D02*
X13296D01*
Y17415D01*
X13371Y17134D01*
X13517Y16882D01*
X13722Y16677D01*
X13974Y16531D01*
X14255Y16456D01*
X14273D01*
Y17433D01*
D02*
G37*
G36*
X90953Y16774D02*
X90907D01*
Y15147D01*
X92534D01*
Y15193D01*
X92467Y15532D01*
X92334Y15851D01*
X92142Y16138D01*
X91898Y16382D01*
X91611Y16574D01*
X91292Y16707D01*
X90953Y16774D01*
D02*
G37*
G36*
X9493D02*
X9447D01*
Y15147D01*
X11074D01*
Y15193D01*
X11007Y15532D01*
X10874Y15851D01*
X10682Y16138D01*
X10438Y16382D01*
X10151Y16574D01*
X9832Y16707D01*
X9493Y16774D01*
D02*
G37*
G36*
X9193D02*
X9147D01*
X8808Y16707D01*
X8489Y16574D01*
X8202Y16382D01*
X7958Y16138D01*
X7766Y15851D01*
X7633Y15532D01*
X7566Y15193D01*
Y15147D01*
X9193D01*
Y16774D01*
D02*
G37*
G36*
X90653D02*
X90607D01*
X90268Y16707D01*
X89949Y16574D01*
X89662Y16382D01*
X89418Y16138D01*
X89226Y15851D01*
X89093Y15532D01*
X89026Y15193D01*
Y15147D01*
X90653D01*
Y16774D01*
D02*
G37*
G36*
X21027Y15347D02*
Y14927D01*
X21447D01*
X21370Y15114D01*
X21214Y15270D01*
X21027Y15347D01*
D02*
G37*
G36*
X20773D02*
X20586Y15270D01*
X20430Y15114D01*
X20353Y14927D01*
X20773D01*
Y15347D01*
D02*
G37*
G36*
X45127Y15247D02*
Y14827D01*
X45547D01*
X45470Y15014D01*
X45314Y15170D01*
X45127Y15247D01*
D02*
G37*
G36*
X44873D02*
X44686Y15170D01*
X44530Y15014D01*
X44453Y14827D01*
X44873D01*
Y15247D01*
D02*
G37*
G36*
X21447Y14673D02*
X21027D01*
Y14253D01*
X21214Y14330D01*
X21370Y14486D01*
X21447Y14673D01*
D02*
G37*
G36*
X20773D02*
X20353D01*
X20430Y14486D01*
X20586Y14330D01*
X20773Y14253D01*
Y14673D01*
D02*
G37*
G36*
X70527Y14647D02*
Y14227D01*
X70947D01*
X70870Y14414D01*
X70714Y14570D01*
X70527Y14647D01*
D02*
G37*
G36*
X70273D02*
X70086Y14570D01*
X69930Y14414D01*
X69853Y14227D01*
X70273D01*
Y14647D01*
D02*
G37*
G36*
X51427D02*
Y14227D01*
X51847D01*
X51770Y14414D01*
X51614Y14570D01*
X51427Y14647D01*
D02*
G37*
G36*
X51173D02*
X50986Y14570D01*
X50830Y14414D01*
X50753Y14227D01*
X51173D01*
Y14647D01*
D02*
G37*
G36*
X33927D02*
Y14227D01*
X34347D01*
X34270Y14414D01*
X34114Y14570D01*
X33927Y14647D01*
D02*
G37*
G36*
X33673D02*
X33486Y14570D01*
X33330Y14414D01*
X33253Y14227D01*
X33673D01*
Y14647D01*
D02*
G37*
G36*
X45547Y14573D02*
X45127D01*
Y14153D01*
X45314Y14230D01*
X45470Y14386D01*
X45547Y14573D01*
D02*
G37*
G36*
X44873D02*
X44453D01*
X44530Y14386D01*
X44686Y14230D01*
X44873Y14153D01*
Y14573D01*
D02*
G37*
G36*
X70947Y13973D02*
X70527D01*
Y13553D01*
X70714Y13630D01*
X70870Y13786D01*
X70947Y13973D01*
D02*
G37*
G36*
X70273D02*
X69853D01*
X69930Y13786D01*
X70086Y13630D01*
X70273Y13553D01*
Y13973D01*
D02*
G37*
G36*
X51847D02*
X51427D01*
Y13553D01*
X51614Y13630D01*
X51770Y13786D01*
X51847Y13973D01*
D02*
G37*
G36*
X51173D02*
X50753D01*
X50830Y13786D01*
X50986Y13630D01*
X51173Y13553D01*
Y13973D01*
D02*
G37*
G36*
X34347D02*
X33927D01*
Y13553D01*
X34114Y13630D01*
X34270Y13786D01*
X34347Y13973D01*
D02*
G37*
G36*
X33673D02*
X33253D01*
X33330Y13786D01*
X33486Y13630D01*
X33673Y13553D01*
Y13973D01*
D02*
G37*
G36*
X92534Y14893D02*
X90907D01*
Y13266D01*
X90953D01*
X91292Y13333D01*
X91611Y13466D01*
X91898Y13658D01*
X92142Y13902D01*
X92334Y14189D01*
X92467Y14508D01*
X92534Y14847D01*
Y14893D01*
D02*
G37*
G36*
X90653D02*
X89026D01*
Y14847D01*
X89093Y14508D01*
X89226Y14189D01*
X89418Y13902D01*
X89662Y13658D01*
X89949Y13466D01*
X90268Y13333D01*
X90607Y13266D01*
X90653D01*
Y14893D01*
D02*
G37*
G36*
X11074D02*
X9447D01*
Y13266D01*
X9493D01*
X9832Y13333D01*
X10151Y13466D01*
X10438Y13658D01*
X10682Y13902D01*
X10874Y14189D01*
X11007Y14508D01*
X11074Y14847D01*
Y14893D01*
D02*
G37*
G36*
X9193D02*
X7566D01*
Y14847D01*
X7633Y14508D01*
X7766Y14189D01*
X7958Y13902D01*
X8202Y13658D01*
X8489Y13466D01*
X8808Y13333D01*
X9147Y13266D01*
X9193D01*
Y14893D01*
D02*
G37*
G36*
X52627Y10047D02*
Y9627D01*
X53047D01*
X52970Y9814D01*
X52814Y9970D01*
X52627Y10047D01*
D02*
G37*
G36*
X52373D02*
X52186Y9970D01*
X52030Y9814D01*
X51953Y9627D01*
X52373D01*
Y10047D01*
D02*
G37*
G36*
X53047Y9373D02*
X52627D01*
Y8953D01*
X52814Y9030D01*
X52970Y9186D01*
X53047Y9373D01*
D02*
G37*
G36*
X52373D02*
X51953D01*
X52030Y9186D01*
X52186Y9030D01*
X52373Y8953D01*
Y9373D01*
D02*
G37*
%LPD*%
D39*
X7700Y38800D02*
D03*
D40*
X10700Y34100D02*
D03*
D41*
X90780Y25180D02*
D03*
Y15020D02*
D03*
X9320D02*
D03*
Y25180D02*
D03*
D42*
X85700Y22640D02*
D03*
X14400Y17560D02*
D03*
D43*
X52500Y9500D02*
D03*
X64000Y30100D02*
D03*
X36250Y33300D02*
D03*
X20900Y14800D02*
D03*
X45000Y14700D02*
D03*
X70400Y14100D02*
D03*
X33800D02*
D03*
X51300D02*
D03*
X21200Y41600D02*
D03*
X72800Y24400D02*
D03*
Y33300D02*
D03*
X64000Y24300D02*
D03*
Y33000D02*
D03*
X52700Y22400D02*
D03*
Y31300D02*
D03*
X36250Y24400D02*
D03*
X31800Y24300D02*
D03*
Y30100D02*
D03*
Y33000D02*
D03*
M02*
