G04*
G04 #@! TF.GenerationSoftware,Altium Limited,Altium Designer,21.8.1 (53)*
G04*
G04 Layer_Physical_Order=4*
G04 Layer_Color=16711680*
%FSLAX43Y43*%
%MOMM*%
G71*
G04*
G04 #@! TF.SameCoordinates,EFE8AAAB-6B81-4C5D-ABB1-31B85196D5EE*
G04*
G04*
G04 #@! TF.FilePolarity,Positive*
G04*
G01*
G75*
%ADD42C,0.150*%
%ADD51R,2.000X1.500*%
%ADD52O,2.000X1.500*%
G04:AMPARAMS|DCode=53|XSize=4mm|YSize=2mm|CornerRadius=0.5mm|HoleSize=0mm|Usage=FLASHONLY|Rotation=0.000|XOffset=0mm|YOffset=0mm|HoleType=Round|Shape=RoundedRectangle|*
%AMROUNDEDRECTD53*
21,1,4.000,1.000,0,0,0.0*
21,1,3.000,2.000,0,0,0.0*
1,1,1.000,1.500,-0.500*
1,1,1.000,-1.500,-0.500*
1,1,1.000,-1.500,0.500*
1,1,1.000,1.500,0.500*
%
%ADD53ROUNDEDRECTD53*%
G04:AMPARAMS|DCode=54|XSize=4mm|YSize=2mm|CornerRadius=0.5mm|HoleSize=0mm|Usage=FLASHONLY|Rotation=90.000|XOffset=0mm|YOffset=0mm|HoleType=Round|Shape=RoundedRectangle|*
%AMROUNDEDRECTD54*
21,1,4.000,1.000,0,0,90.0*
21,1,3.000,2.000,0,0,90.0*
1,1,1.000,0.500,1.500*
1,1,1.000,0.500,-1.500*
1,1,1.000,-0.500,-1.500*
1,1,1.000,-0.500,1.500*
%
%ADD54ROUNDEDRECTD54*%
G04:AMPARAMS|DCode=55|XSize=2mm|YSize=4.5mm|CornerRadius=0.5mm|HoleSize=0mm|Usage=FLASHONLY|Rotation=0.000|XOffset=0mm|YOffset=0mm|HoleType=Round|Shape=RoundedRectangle|*
%AMROUNDEDRECTD55*
21,1,2.000,3.500,0,0,0.0*
21,1,1.000,4.500,0,0,0.0*
1,1,1.000,0.500,-1.750*
1,1,1.000,-0.500,-1.750*
1,1,1.000,-0.500,1.750*
1,1,1.000,0.500,1.750*
%
%ADD55ROUNDEDRECTD55*%
%ADD56C,3.000*%
%ADD57C,1.700*%
%ADD58C,0.600*%
%ADD59C,1.000*%
D42*
X47100Y37200D02*
X55400D01*
X56300Y38100D01*
Y49200D02*
X57600Y47900D01*
Y36300D02*
Y47900D01*
X53000Y42500D02*
Y55900D01*
X54000Y56900D01*
X51300Y44400D02*
Y57400D01*
X54000Y60100D01*
X56900Y35600D02*
X57600Y36300D01*
X46400Y35600D02*
X56900D01*
X44100Y37900D02*
X46400Y35600D01*
X44100Y37900D02*
Y40200D01*
X40500Y43800D02*
X44100Y40200D01*
X45700Y38600D02*
X47100Y37200D01*
X45700Y38600D02*
Y45500D01*
X47000Y46800D01*
X51300Y40800D02*
X53000Y42500D01*
X47900Y40800D02*
X51300D01*
X47000Y41700D02*
X47900Y40800D01*
X47000Y41700D02*
Y43800D01*
X49200Y42300D02*
X51300Y44400D01*
D51*
X64400Y39780D02*
D03*
X60000Y47500D02*
D03*
Y28100D02*
D03*
X64400D02*
D03*
X64400Y62300D02*
D03*
X60000Y54680D02*
D03*
D52*
X64400Y42320D02*
D03*
Y47400D02*
D03*
Y44860D02*
D03*
X60000Y44960D02*
D03*
Y39880D02*
D03*
Y42420D02*
D03*
Y25560D02*
D03*
Y20480D02*
D03*
Y23020D02*
D03*
X64400Y25560D02*
D03*
Y20480D02*
D03*
Y23020D02*
D03*
X64400Y57220D02*
D03*
Y59760D02*
D03*
Y54680D02*
D03*
X60000Y59760D02*
D03*
Y57220D02*
D03*
Y62300D02*
D03*
D53*
X10700Y74300D02*
D03*
D54*
X7700Y79000D02*
D03*
D55*
X13700D02*
D03*
D56*
X9320Y18220D02*
D03*
Y28380D02*
D03*
Y57120D02*
D03*
Y67280D02*
D03*
Y37620D02*
D03*
Y47780D02*
D03*
D57*
X14400Y23300D02*
D03*
Y20760D02*
D03*
Y62200D02*
D03*
Y59660D02*
D03*
Y42700D02*
D03*
Y40160D02*
D03*
D58*
X30200Y4900D02*
D03*
X26800Y6100D02*
D03*
X24700D02*
D03*
X21100Y4900D02*
D03*
X54000Y39100D02*
D03*
Y48200D02*
D03*
X57200Y54900D02*
D03*
X57300Y62100D02*
D03*
X35400Y55100D02*
D03*
Y48500D02*
D03*
X35500Y70600D02*
D03*
X32000Y69400D02*
D03*
X29900D02*
D03*
X26500Y70600D02*
D03*
X26900Y48500D02*
D03*
Y55000D02*
D03*
X56300Y49200D02*
D03*
Y38100D02*
D03*
X54000Y56900D02*
D03*
Y60100D02*
D03*
X47000Y43800D02*
D03*
Y46800D02*
D03*
X49200Y42300D02*
D03*
X40500Y43800D02*
D03*
X23300Y78300D02*
D03*
X22200Y81400D02*
D03*
X44600Y55000D02*
D03*
X43800Y61700D02*
D03*
X38300Y64400D02*
D03*
X40400Y52400D02*
D03*
Y55000D02*
D03*
X44600Y63300D02*
D03*
X26800D02*
D03*
Y58000D02*
D03*
Y60600D02*
D03*
X35200Y25100D02*
D03*
X43300Y25000D02*
D03*
X54000Y21600D02*
D03*
Y28800D02*
D03*
X32600Y15600D02*
D03*
X29900Y11200D02*
D03*
X30000Y22100D02*
D03*
X31000Y22500D02*
D03*
X17300Y11200D02*
D03*
X25700Y15900D02*
D03*
Y18500D02*
D03*
X35200Y20900D02*
D03*
X43300Y20800D02*
D03*
X41800Y24200D02*
D03*
D59*
X20600Y35300D02*
Y75600D01*
Y35300D02*
X23900Y32000D01*
X20600Y75600D02*
X23300Y78300D01*
X23900Y32000D02*
X34000D01*
X41800Y24200D01*
X23300Y78300D02*
X34700D01*
X38300Y64400D02*
Y74700D01*
X34700Y78300D02*
X38300Y74700D01*
X26900Y55000D02*
X29500Y57600D01*
X42000D01*
X44600Y55000D01*
X26900Y48500D02*
Y55000D01*
X41000Y61700D02*
X43800D01*
X38300Y64400D02*
X41000Y61700D01*
X17300Y11200D02*
X25100D01*
X43300Y20800D02*
Y22700D01*
X41800Y24200D02*
X43300Y22700D01*
X39900Y17400D02*
X43300Y20800D01*
X25100Y11200D02*
X31300Y17400D01*
X39900D01*
X31000Y22500D02*
X33600D01*
X35200Y20900D01*
M02*
