M48
;Layer_Color=9474304
;FILE_FORMAT=4:3
METRIC,LZ
;TYPE=PLATED
T1F00S00C0.300
T2F00S00C1.000
T4F00S00C2.000
%
T01
X00211Y00049
X00247Y00061
X00268
X00302Y00049
X00299Y00112
X00326Y00156
X00257Y00159
Y00185
X003Y00221
X0031Y00225
X00352Y00209
X00433Y00208
X00418Y00242
X00173Y00112
X0054Y00216
Y00288
X0054Y00391
X00563Y00381
Y00492
X0054Y00482
X0054Y00569
Y00601
X00573Y00621
X00572Y00549
X00446Y0055
X00404
Y00524
X00354Y00551
Y00485
X00269
Y0055
X00268Y0058
Y00606
Y00633
X00446
X00438Y00617
X0047Y00468
Y00438
X00492Y00423
X00405Y00438
X00433Y0025
X00352Y00251
X00383Y00644
X00355Y00706
X0032Y00694
X00299
X00265Y00706
X00233Y00783
X00222Y00814
T02
X00144Y002076
Y00233
X006Y002302
Y002048
X00644
Y002302
Y002556
Y00281
X006
Y002556
Y003988
Y004242
Y004496
Y00475
X00644Y00474
Y004486
Y004232
Y003978
Y005468
Y005722
Y005976
Y00623
X006
Y005976
Y005722
Y005468
X00144Y005966
Y00622
Y00427
Y004016
T04
X000932Y001822
Y002838
Y003762
Y004778
Y005712
Y006728
M30
