G04*
G04 #@! TF.GenerationSoftware,Altium Limited,Altium Designer,21.8.1 (53)*
G04*
G04 Layer_Color=16711935*
%FSLAX43Y43*%
%MOMM*%
G71*
G04*
G04 #@! TF.SameCoordinates,EFE8AAAB-6B81-4C5D-ABB1-31B85196D5EE*
G04*
G04*
G04 #@! TF.FilePolarity,Negative*
G04*
G01*
G75*
%ADD24R,2.060X1.560*%
%ADD25O,2.060X1.560*%
G04:AMPARAMS|DCode=26|XSize=4.1mm|YSize=2.1mm|CornerRadius=0.55mm|HoleSize=0mm|Usage=FLASHONLY|Rotation=0.000|XOffset=0mm|YOffset=0mm|HoleType=Round|Shape=RoundedRectangle|*
%AMROUNDEDRECTD26*
21,1,4.100,1.000,0,0,0.0*
21,1,3.000,2.100,0,0,0.0*
1,1,1.100,1.500,-0.500*
1,1,1.100,-1.500,-0.500*
1,1,1.100,-1.500,0.500*
1,1,1.100,1.500,0.500*
%
%ADD26ROUNDEDRECTD26*%
G04:AMPARAMS|DCode=27|XSize=4.1mm|YSize=2.1mm|CornerRadius=0.55mm|HoleSize=0mm|Usage=FLASHONLY|Rotation=90.000|XOffset=0mm|YOffset=0mm|HoleType=Round|Shape=RoundedRectangle|*
%AMROUNDEDRECTD27*
21,1,4.100,1.000,0,0,90.0*
21,1,3.000,2.100,0,0,90.0*
1,1,1.100,0.500,1.500*
1,1,1.100,0.500,-1.500*
1,1,1.100,-0.500,-1.500*
1,1,1.100,-0.500,1.500*
%
%ADD27ROUNDEDRECTD27*%
G04:AMPARAMS|DCode=28|XSize=2.1mm|YSize=4.6mm|CornerRadius=0.55mm|HoleSize=0mm|Usage=FLASHONLY|Rotation=0.000|XOffset=0mm|YOffset=0mm|HoleType=Round|Shape=RoundedRectangle|*
%AMROUNDEDRECTD28*
21,1,2.100,3.500,0,0,0.0*
21,1,1.000,4.600,0,0,0.0*
1,1,1.100,0.500,-1.750*
1,1,1.100,-0.500,-1.750*
1,1,1.100,-0.500,1.750*
1,1,1.100,0.500,1.750*
%
%ADD28ROUNDEDRECTD28*%
%ADD29C,3.060*%
%ADD30C,1.760*%
D24*
X64400Y39780D02*
D03*
X60000Y47500D02*
D03*
Y28100D02*
D03*
X64400D02*
D03*
X64400Y62300D02*
D03*
X60000Y54680D02*
D03*
D25*
X64400Y42320D02*
D03*
Y47400D02*
D03*
Y44860D02*
D03*
X60000Y44960D02*
D03*
Y39880D02*
D03*
Y42420D02*
D03*
Y25560D02*
D03*
Y20480D02*
D03*
Y23020D02*
D03*
X64400Y25560D02*
D03*
Y20480D02*
D03*
Y23020D02*
D03*
X64400Y57220D02*
D03*
Y59760D02*
D03*
Y54680D02*
D03*
X60000Y59760D02*
D03*
Y57220D02*
D03*
Y62300D02*
D03*
D26*
X10700Y74300D02*
D03*
D27*
X7700Y79000D02*
D03*
D28*
X13700D02*
D03*
D29*
X9320Y18220D02*
D03*
Y28380D02*
D03*
Y57120D02*
D03*
Y67280D02*
D03*
Y37620D02*
D03*
Y47780D02*
D03*
D30*
X14400Y23300D02*
D03*
Y20760D02*
D03*
Y62200D02*
D03*
Y59660D02*
D03*
Y42700D02*
D03*
Y40160D02*
D03*
M02*
